<svg width="82" height="82" viewBox="0 0 82 82" fill="none" xmlns="http://www.w3.org/2000/svg">
<g filter="url(#filter0_d_5_17)">
<mask id="path-1-outside-1_5_17" maskUnits="userSpaceOnUse" x="4" y="0" width="74" height="74" fill="black">
<rect fill="white" x="4" width="74" height="74"/>
<path d="M5 1H77V73H5V1Z"/>
<path d="M27.3592 24.552V25H24.2712V24.552L25.1512 24.44C25.2685 24.4187 25.3539 24.3973 25.4072 24.376C25.4605 24.344 25.5085 24.2747 25.5512 24.168C25.5939 24.0613 25.6525 23.8907 25.7272 23.656L28.7832 14.12H30.1592L33.2312 23.656C33.3059 23.8907 33.3645 24.0613 33.4072 24.168C33.4499 24.2747 33.4979 24.344 33.5512 24.376C33.6152 24.3973 33.7005 24.4187 33.8072 24.44L34.6872 24.552V25H30.2712V24.552L31.1512 24.44C31.3219 24.4187 31.4125 24.376 31.4232 24.312C31.4445 24.2373 31.3965 24.0187 31.2792 23.656L30.6712 21.672H26.9752L26.3512 23.656C26.2445 24.0187 26.1965 24.2373 26.2072 24.312C26.2179 24.376 26.3085 24.4187 26.4792 24.44L27.3592 24.552ZM27.1672 21.112H30.4952L28.8472 15.8L27.1672 21.112Z"/>
<path d="M43.6808 25L41.0568 16.264L38.5768 25H37.1848L34.9608 15.464C34.9075 15.2187 34.8648 15.048 34.8328 14.952C34.8008 14.8453 34.7528 14.776 34.6888 14.744C34.6355 14.712 34.5501 14.6907 34.4328 14.68L33.5528 14.568V14.12H37.9848V14.568L37.1048 14.68C36.9341 14.7013 36.8435 14.744 36.8328 14.808C36.8221 14.872 36.8541 15.0907 36.9288 15.464L38.5928 22.92L41.0408 14.12H42.3688L44.9768 22.76L46.6728 15.464C46.7581 15.0907 46.7901 14.872 46.7688 14.808C46.7475 14.744 46.6568 14.7013 46.4968 14.68L45.6168 14.568V14.12H48.7208V14.568L47.8408 14.68C47.7235 14.6907 47.6381 14.712 47.5848 14.744C47.5315 14.776 47.4835 14.8453 47.4408 14.952C47.4088 15.048 47.3661 15.2187 47.3128 15.464L45.0888 25H43.6808Z"/>
<path d="M53.0484 24.6C53.6884 24.6 54.2164 24.4507 54.6324 24.152C55.0591 23.8427 55.2724 23.3627 55.2724 22.712C55.2724 22.232 55.1284 21.832 54.8404 21.512C54.5631 21.192 54.0618 20.9253 53.3364 20.712L51.8484 20.264C51.1018 20.04 50.5258 19.656 50.1204 19.112C49.7258 18.5573 49.5284 17.8693 49.5284 17.048C49.5284 16.504 49.6511 15.9973 49.8964 15.528C50.1524 15.0587 50.5364 14.68 51.0484 14.392C51.5711 14.104 52.2271 13.96 53.0164 13.96C53.8804 13.96 54.5791 14.12 55.1124 14.44C55.6458 14.7493 56.0191 15.1547 56.2324 15.656C56.4458 16.1573 56.4991 16.696 56.3924 17.272L54.5524 17.608C54.7231 16.616 54.6484 15.8533 54.3284 15.32C54.0191 14.7867 53.5124 14.52 52.8084 14.52C52.2644 14.52 51.8271 14.68 51.4964 15C51.1764 15.32 51.0164 15.7787 51.0164 16.376C51.0164 16.8667 51.1551 17.2987 51.4324 17.672C51.7204 18.0453 52.1898 18.3333 52.8404 18.536L54.3284 18.984C55.1391 19.2187 55.7471 19.576 56.1524 20.056C56.5578 20.5253 56.7604 21.1813 56.7604 22.024C56.7604 22.6213 56.6218 23.16 56.3444 23.64C56.0778 24.1093 55.6671 24.4827 55.1124 24.76C54.5684 25.0267 53.8858 25.16 53.0644 25.16C52.4671 25.16 51.9018 25.0747 51.3684 24.904C50.8351 24.7227 50.3871 24.4293 50.0244 24.024C49.6724 23.6187 49.4484 23.0693 49.3524 22.376L50.4244 21.992C50.4778 22.6747 50.6271 23.208 50.8724 23.592C51.1284 23.9653 51.4431 24.2267 51.8164 24.376C52.2004 24.5253 52.6111 24.6 53.0484 24.6Z"/>
<path d="M16.8594 36.288C16.3474 36.288 15.9634 36.5333 15.7074 37.024C15.4621 37.504 15.3394 38.3147 15.3394 39.456V40.416C15.3394 41.5467 15.4834 42.3627 15.7714 42.864C16.0594 43.3547 16.5288 43.6 17.1794 43.6C17.6594 43.6 18.0488 43.4667 18.3474 43.2C18.6568 42.9227 18.8328 42.4587 18.8754 41.808L19.8994 42.096C19.7074 42.8427 19.3554 43.376 18.8434 43.696C18.3421 44.0053 17.7501 44.16 17.0674 44.16C15.8408 44.16 14.9181 43.792 14.2994 43.056C13.6808 42.3093 13.3714 41.3227 13.3714 40.096V39.776C13.3714 38.5493 13.6701 37.568 14.2674 36.832C14.8648 36.096 15.7288 35.728 16.8594 35.728C17.6061 35.728 18.2141 35.8773 18.6834 36.176C19.1634 36.464 19.4994 36.848 19.6914 37.328C19.8941 37.7973 19.9474 38.304 19.8514 38.848L18.0914 39.104C18.2088 38.208 18.1608 37.5147 17.9474 37.024C17.7341 36.5333 17.3714 36.288 16.8594 36.288Z"/>
<path d="M28.7303 39.776V40.096C28.7303 41.3227 28.4103 42.3093 27.7703 43.056C27.141 43.792 26.2396 44.16 25.0663 44.16C23.893 44.16 22.9863 43.792 22.3463 43.056C21.717 42.3093 21.4023 41.3227 21.4023 40.096V39.776C21.4023 38.5493 21.717 37.568 22.3463 36.832C22.9863 36.096 23.893 35.728 25.0663 35.728C26.2396 35.728 27.141 36.096 27.7703 36.832C28.4103 37.568 28.7303 38.5493 28.7303 39.776ZM26.7623 39.456C26.7623 38.3147 26.6183 37.504 26.3303 37.024C26.0423 36.5333 25.621 36.288 25.0663 36.288C24.5223 36.288 24.101 36.5333 23.8023 37.024C23.5143 37.504 23.3703 38.3147 23.3703 39.456V40.416C23.3703 41.5467 23.5143 42.3627 23.8023 42.864C24.101 43.3547 24.5223 43.6 25.0663 43.6C25.621 43.6 26.0423 43.3547 26.3303 42.864C26.6183 42.3627 26.7623 41.5467 26.7623 40.416V39.456Z"/>
<path d="M39.3467 43.552V44H35.0427V43.552L35.9227 43.44C36.0934 43.4187 36.1947 43.376 36.2267 43.312C36.2587 43.2373 36.2747 43.0187 36.2747 42.656V38.624C36.2747 37.888 36.1627 37.3547 35.9387 37.024C35.7254 36.6827 35.4054 36.512 34.9787 36.512C34.7974 36.512 34.584 36.56 34.3387 36.656C34.104 36.7413 33.864 36.9013 33.6187 37.136C33.384 37.3707 33.176 37.7173 32.9947 38.176V42.656C32.9947 43.0187 33.0107 43.2373 33.0427 43.312C33.0747 43.376 33.176 43.4187 33.3467 43.44L34.2267 43.552V44H29.9227V43.552L30.8027 43.44C30.9734 43.4187 31.0747 43.376 31.1067 43.312C31.1387 43.2373 31.1547 43.0187 31.1547 42.656V37.232C31.1547 36.8693 31.1387 36.656 31.1067 36.592C31.0747 36.5173 30.9734 36.4693 30.8027 36.448L29.9227 36.336V35.888H32.8987V37.296C33.208 36.752 33.6027 36.3573 34.0827 36.112C34.5734 35.856 35.064 35.728 35.5547 35.728C36.344 35.728 36.968 35.9787 37.4267 36.48C37.8854 36.9813 38.1147 37.6907 38.1147 38.608V42.656C38.1147 43.0187 38.1307 43.2373 38.1627 43.312C38.1947 43.376 38.296 43.4187 38.4667 43.44L39.3467 43.552Z"/>
<path d="M43.5394 40.976L42.4354 40.72C41.7208 40.5493 41.1874 40.2453 40.8354 39.808C40.4941 39.36 40.3234 38.832 40.3234 38.224C40.3234 37.776 40.4194 37.3653 40.6114 36.992C40.8141 36.608 41.1288 36.304 41.5554 36.08C41.9821 35.8453 42.5368 35.728 43.2194 35.728C43.9554 35.728 44.5528 35.8453 45.0114 36.08C45.4701 36.3147 45.7954 36.624 45.9874 37.008C46.1794 37.392 46.2381 37.8027 46.1634 38.24L44.4034 38.56C44.5528 37.8347 44.5101 37.2747 44.2754 36.88C44.0514 36.4853 43.6728 36.288 43.1394 36.288C42.7661 36.288 42.4568 36.4 42.2114 36.624C41.9661 36.8373 41.8434 37.1467 41.8434 37.552C41.8434 37.9253 41.9501 38.256 42.1634 38.544C42.3768 38.8213 42.6914 39.008 43.1074 39.104L44.2114 39.36C45.0008 39.5413 45.5714 39.8293 45.9234 40.224C46.2754 40.608 46.4514 41.088 46.4514 41.664C46.4514 42.3787 46.1848 42.976 45.6514 43.456C45.1288 43.9253 44.3448 44.16 43.2994 44.16C42.9368 44.16 42.5368 44.1067 42.0994 44C41.6728 43.8827 41.2781 43.6747 40.9154 43.376C40.5634 43.0773 40.3074 42.6507 40.1474 42.096L41.1874 41.68C41.2621 42.384 41.5021 42.88 41.9074 43.168C42.3234 43.456 42.7874 43.6 43.2994 43.6C43.7794 43.6 44.1688 43.4933 44.4674 43.28C44.7768 43.056 44.9314 42.736 44.9314 42.32C44.9314 42.032 44.8301 41.7707 44.6274 41.536C44.4354 41.2907 44.0728 41.104 43.5394 40.976Z"/>
<path d="M55.3709 39.776V40.096C55.3709 41.3227 55.0509 42.3093 54.4109 43.056C53.7816 43.792 52.8803 44.16 51.7069 44.16C50.5336 44.16 49.6269 43.792 48.9869 43.056C48.3576 42.3093 48.0429 41.3227 48.0429 40.096V39.776C48.0429 38.5493 48.3576 37.568 48.9869 36.832C49.6269 36.096 50.5336 35.728 51.7069 35.728C52.8803 35.728 53.7816 36.096 54.4109 36.832C55.0509 37.568 55.3709 38.5493 55.3709 39.776ZM53.4029 39.456C53.4029 38.3147 53.2589 37.504 52.9709 37.024C52.6829 36.5333 52.2616 36.288 51.7069 36.288C51.1629 36.288 50.7416 36.5333 50.4429 37.024C50.1549 37.504 50.0109 38.3147 50.0109 39.456V40.416C50.0109 41.5467 50.1549 42.3627 50.4429 42.864C50.7416 43.3547 51.1629 43.6 51.7069 43.6C52.2616 43.6 52.6829 43.3547 52.9709 42.864C53.2589 42.3627 53.4029 41.5467 53.4029 40.416V39.456Z"/>
<path d="M56.4513 32.608V32.16H59.5233V42.656C59.5233 43.0187 59.5393 43.2373 59.5713 43.312C59.6033 43.376 59.7046 43.4187 59.8753 43.44L60.7553 43.552V44H56.4513V43.552L57.3313 43.44C57.502 43.4187 57.6033 43.376 57.6353 43.312C57.6673 43.2373 57.6833 43.0187 57.6833 42.656V33.504C57.6833 33.1413 57.6673 32.928 57.6353 32.864C57.6033 32.7893 57.502 32.7413 57.3313 32.72L56.4513 32.608Z"/>
<path d="M68.5918 42.096C68.3998 42.8427 68.0425 43.376 67.5198 43.696C66.9971 44.0053 66.3891 44.16 65.6958 44.16C64.4158 44.16 63.4558 43.792 62.8158 43.056C62.1758 42.3093 61.8558 41.3227 61.8558 40.096V39.776C61.8558 38.5493 62.1545 37.568 62.7518 36.832C63.3598 36.096 64.2345 35.728 65.3758 35.728C66.0158 35.728 66.5811 35.856 67.0718 36.112C67.5731 36.3573 67.9625 36.7147 68.2398 37.184C68.5278 37.6533 68.6718 38.224 68.6718 38.896C68.6718 39.056 68.6611 39.2267 68.6398 39.408C68.6291 39.5893 68.6025 39.7707 68.5598 39.952H63.8238V40.416C63.8238 41.5467 63.9838 42.3627 64.3038 42.864C64.6238 43.3547 65.1411 43.6 65.8558 43.6C66.3145 43.6 66.7038 43.4667 67.0238 43.2C67.3438 42.9227 67.5251 42.4587 67.5678 41.808L68.5918 42.096ZM65.3758 36.288C64.8531 36.288 64.4638 36.528 64.2078 37.008C63.9518 37.488 63.8238 38.2827 63.8238 39.392H66.7198C66.7625 39.1787 66.7891 38.9813 66.7998 38.8C66.8211 38.608 66.8318 38.432 66.8318 38.272C66.8318 37.5893 66.6985 37.088 66.4318 36.768C66.1651 36.448 65.8131 36.288 65.3758 36.288Z"/>
<path d="M15.8126 55.288C15.3006 55.288 14.9166 55.5333 14.6606 56.024C14.4152 56.504 14.2926 57.3147 14.2926 58.456V59.416C14.2926 60.5467 14.4366 61.3627 14.7246 61.864C15.0126 62.3547 15.4819 62.6 16.1326 62.6C16.6126 62.6 17.0019 62.4667 17.3006 62.2C17.6099 61.9227 17.7859 61.4587 17.8286 60.808L18.8526 61.096C18.6606 61.8427 18.3086 62.376 17.7966 62.696C17.2952 63.0053 16.7032 63.16 16.0206 63.16C14.7939 63.16 13.8712 62.792 13.2526 62.056C12.6339 61.3093 12.3246 60.3227 12.3246 59.096V58.776C12.3246 57.5493 12.6232 56.568 13.2206 55.832C13.8179 55.096 14.6819 54.728 15.8126 54.728C16.5592 54.728 17.1672 54.8773 17.6366 55.176C18.1166 55.464 18.4526 55.848 18.6446 56.328C18.8472 56.7973 18.9006 57.304 18.8046 57.848L17.0446 58.104C17.1619 57.208 17.1139 56.5147 16.9006 56.024C16.6872 55.5333 16.3246 55.288 15.8126 55.288Z"/>
<path d="M27.6834 58.776V59.096C27.6834 60.3227 27.3634 61.3093 26.7234 62.056C26.0941 62.792 25.1928 63.16 24.0194 63.16C22.8461 63.16 21.9394 62.792 21.2994 62.056C20.6701 61.3093 20.3554 60.3227 20.3554 59.096V58.776C20.3554 57.5493 20.6701 56.568 21.2994 55.832C21.9394 55.096 22.8461 54.728 24.0194 54.728C25.1928 54.728 26.0941 55.096 26.7234 55.832C27.3634 56.568 27.6834 57.5493 27.6834 58.776ZM25.7154 58.456C25.7154 57.3147 25.5714 56.504 25.2834 56.024C24.9954 55.5333 24.5741 55.288 24.0194 55.288C23.4754 55.288 23.0541 55.5333 22.7554 56.024C22.4674 56.504 22.3234 57.3147 22.3234 58.456V59.416C22.3234 60.5467 22.4674 61.3627 22.7554 61.864C23.0541 62.3547 23.4754 62.6 24.0194 62.6C24.5741 62.6 24.9954 62.3547 25.2834 61.864C25.5714 61.3627 25.7154 60.5467 25.7154 59.416V58.456Z"/>
<path d="M28.7638 51.608V51.16H31.8358V61.656C31.8358 62.0187 31.8518 62.2373 31.8838 62.312C31.9158 62.376 32.0171 62.4187 32.1878 62.44L33.0678 62.552V63H28.7638V62.552L29.6438 62.44C29.8145 62.4187 29.9158 62.376 29.9478 62.312C29.9798 62.2373 29.9958 62.0187 29.9958 61.656V52.504C29.9958 52.1413 29.9798 51.928 29.9478 51.864C29.9158 51.7893 29.8145 51.7413 29.6438 51.72L28.7638 51.608Z"/>
<path d="M41.4803 58.776V59.096C41.4803 60.3227 41.1603 61.3093 40.5203 62.056C39.891 62.792 38.9896 63.16 37.8163 63.16C36.643 63.16 35.7363 62.792 35.0963 62.056C34.467 61.3093 34.1523 60.3227 34.1523 59.096V58.776C34.1523 57.5493 34.467 56.568 35.0963 55.832C35.7363 55.096 36.643 54.728 37.8163 54.728C38.9896 54.728 39.891 55.096 40.5203 55.832C41.1603 56.568 41.4803 57.5493 41.4803 58.776ZM39.5123 58.456C39.5123 57.3147 39.3683 56.504 39.0803 56.024C38.7923 55.5333 38.371 55.288 37.8163 55.288C37.2723 55.288 36.851 55.5333 36.5523 56.024C36.2643 56.504 36.1203 57.3147 36.1203 58.456V59.416C36.1203 60.5467 36.2643 61.3627 36.5523 61.864C36.851 62.3547 37.2723 62.6 37.8163 62.6C38.371 62.6 38.7923 62.3547 39.0803 61.864C39.3683 61.3627 39.5123 60.5467 39.5123 59.416V58.456Z"/>
<path d="M42.6727 55.336V54.888H45.6487V56.2C46.2994 55.2187 47.0727 54.728 47.9687 54.728C48.2994 54.728 48.6194 54.8347 48.9287 55.048C49.238 55.2507 49.494 55.6347 49.6967 56.2L48.2727 56.968C48.1234 56.5307 47.9474 56.2373 47.7447 56.088C47.5527 55.928 47.3447 55.848 47.1207 55.848C46.886 55.848 46.6567 55.9227 46.4327 56.072C46.2087 56.2213 45.9794 56.4987 45.7447 56.904V61.656C45.7447 62.0187 45.7607 62.2373 45.7927 62.312C45.8247 62.376 45.926 62.4187 46.0967 62.44L47.2967 62.552V63H42.6727V62.552L43.5527 62.44C43.7234 62.4187 43.8247 62.376 43.8567 62.312C43.8887 62.2373 43.9047 62.0187 43.9047 61.656V56.232C43.9047 55.8693 43.8887 55.656 43.8567 55.592C43.8247 55.5173 43.7234 55.4693 43.5527 55.448L42.6727 55.336Z"/>
<path d="M52.2073 53.512C51.8766 53.512 51.61 53.4107 51.4073 53.208C51.2046 52.9947 51.1033 52.7227 51.1033 52.392C51.1033 52.0613 51.2046 51.7947 51.4073 51.592C51.61 51.3893 51.8766 51.288 52.2073 51.288C52.5273 51.288 52.794 51.3893 53.0073 51.592C53.2206 51.7947 53.3273 52.0613 53.3273 52.392C53.3273 52.7227 53.2206 52.9947 53.0073 53.208C52.794 53.4107 52.5273 53.512 52.2073 53.512ZM50.0633 55.336V54.888H53.1353V61.656C53.1353 62.0187 53.1513 62.2373 53.1833 62.312C53.2153 62.376 53.3166 62.4187 53.4873 62.44L54.3673 62.552V63H50.0633V62.552L50.9433 62.44C51.114 62.4187 51.2153 62.376 51.2473 62.312C51.2793 62.2373 51.2953 62.0187 51.2953 61.656V56.232C51.2953 55.8693 51.2793 55.656 51.2473 55.592C51.2153 55.5173 51.114 55.4693 50.9433 55.448L50.0633 55.336Z"/>
<path d="M60.9692 60.568H61.4172V63H55.2252V62.6L59.2412 55.448H57.1612C56.9159 55.448 56.7345 55.4587 56.6172 55.48C56.5105 55.4907 56.4412 55.528 56.4092 55.592C56.3772 55.6453 56.3399 55.736 56.2972 55.864L55.8652 57.32H55.4172V54.888H61.2572V55.288L57.2412 62.44H59.6732C59.9292 62.44 60.1105 62.4347 60.2172 62.424C60.3239 62.4027 60.3932 62.3653 60.4252 62.312C60.4679 62.248 60.5052 62.152 60.5372 62.024L60.9692 60.568Z"/>
<path d="M69.6387 61.096C69.4467 61.8427 69.0894 62.376 68.5667 62.696C68.044 63.0053 67.436 63.16 66.7427 63.16C65.4627 63.16 64.5027 62.792 63.8627 62.056C63.2227 61.3093 62.9027 60.3227 62.9027 59.096V58.776C62.9027 57.5493 63.2014 56.568 63.7987 55.832C64.4067 55.096 65.2814 54.728 66.4227 54.728C67.0627 54.728 67.628 54.856 68.1187 55.112C68.62 55.3573 69.0094 55.7147 69.2867 56.184C69.5747 56.6533 69.7187 57.224 69.7187 57.896C69.7187 58.056 69.708 58.2267 69.6867 58.408C69.676 58.5893 69.6494 58.7707 69.6067 58.952H64.8707V59.416C64.8707 60.5467 65.0307 61.3627 65.3507 61.864C65.6707 62.3547 66.188 62.6 66.9027 62.6C67.3614 62.6 67.7507 62.4667 68.0707 62.2C68.3907 61.9227 68.572 61.4587 68.6147 60.808L69.6387 61.096ZM66.4227 55.288C65.9 55.288 65.5107 55.528 65.2547 56.008C64.9987 56.488 64.8707 57.2827 64.8707 58.392H67.7667C67.8094 58.1787 67.836 57.9813 67.8467 57.8C67.868 57.608 67.8787 57.432 67.8787 57.272C67.8787 56.5893 67.7454 56.088 67.4787 55.768C67.212 55.448 66.86 55.288 66.4227 55.288Z"/>
</mask>
<path d="M5 1H77V73H5V1Z" fill="#161D26"/>
<path d="M27.3592 24.552V25H24.2712V24.552L25.1512 24.44C25.2685 24.4187 25.3539 24.3973 25.4072 24.376C25.4605 24.344 25.5085 24.2747 25.5512 24.168C25.5939 24.0613 25.6525 23.8907 25.7272 23.656L28.7832 14.12H30.1592L33.2312 23.656C33.3059 23.8907 33.3645 24.0613 33.4072 24.168C33.4499 24.2747 33.4979 24.344 33.5512 24.376C33.6152 24.3973 33.7005 24.4187 33.8072 24.44L34.6872 24.552V25H30.2712V24.552L31.1512 24.44C31.3219 24.4187 31.4125 24.376 31.4232 24.312C31.4445 24.2373 31.3965 24.0187 31.2792 23.656L30.6712 21.672H26.9752L26.3512 23.656C26.2445 24.0187 26.1965 24.2373 26.2072 24.312C26.2179 24.376 26.3085 24.4187 26.4792 24.44L27.3592 24.552ZM27.1672 21.112H30.4952L28.8472 15.8L27.1672 21.112Z" fill="white"/>
<path d="M43.6808 25L41.0568 16.264L38.5768 25H37.1848L34.9608 15.464C34.9075 15.2187 34.8648 15.048 34.8328 14.952C34.8008 14.8453 34.7528 14.776 34.6888 14.744C34.6355 14.712 34.5501 14.6907 34.4328 14.68L33.5528 14.568V14.12H37.9848V14.568L37.1048 14.68C36.9341 14.7013 36.8435 14.744 36.8328 14.808C36.8221 14.872 36.8541 15.0907 36.9288 15.464L38.5928 22.92L41.0408 14.12H42.3688L44.9768 22.76L46.6728 15.464C46.7581 15.0907 46.7901 14.872 46.7688 14.808C46.7475 14.744 46.6568 14.7013 46.4968 14.68L45.6168 14.568V14.12H48.7208V14.568L47.8408 14.68C47.7235 14.6907 47.6381 14.712 47.5848 14.744C47.5315 14.776 47.4835 14.8453 47.4408 14.952C47.4088 15.048 47.3661 15.2187 47.3128 15.464L45.0888 25H43.6808Z" fill="white"/>
<path d="M53.0484 24.6C53.6884 24.6 54.2164 24.4507 54.6324 24.152C55.0591 23.8427 55.2724 23.3627 55.2724 22.712C55.2724 22.232 55.1284 21.832 54.8404 21.512C54.5631 21.192 54.0618 20.9253 53.3364 20.712L51.8484 20.264C51.1018 20.04 50.5258 19.656 50.1204 19.112C49.7258 18.5573 49.5284 17.8693 49.5284 17.048C49.5284 16.504 49.6511 15.9973 49.8964 15.528C50.1524 15.0587 50.5364 14.68 51.0484 14.392C51.5711 14.104 52.2271 13.96 53.0164 13.96C53.8804 13.96 54.5791 14.12 55.1124 14.44C55.6458 14.7493 56.0191 15.1547 56.2324 15.656C56.4458 16.1573 56.4991 16.696 56.3924 17.272L54.5524 17.608C54.7231 16.616 54.6484 15.8533 54.3284 15.32C54.0191 14.7867 53.5124 14.52 52.8084 14.52C52.2644 14.52 51.8271 14.68 51.4964 15C51.1764 15.32 51.0164 15.7787 51.0164 16.376C51.0164 16.8667 51.1551 17.2987 51.4324 17.672C51.7204 18.0453 52.1898 18.3333 52.8404 18.536L54.3284 18.984C55.1391 19.2187 55.7471 19.576 56.1524 20.056C56.5578 20.5253 56.7604 21.1813 56.7604 22.024C56.7604 22.6213 56.6218 23.16 56.3444 23.64C56.0778 24.1093 55.6671 24.4827 55.1124 24.76C54.5684 25.0267 53.8858 25.16 53.0644 25.16C52.4671 25.16 51.9018 25.0747 51.3684 24.904C50.8351 24.7227 50.3871 24.4293 50.0244 24.024C49.6724 23.6187 49.4484 23.0693 49.3524 22.376L50.4244 21.992C50.4778 22.6747 50.6271 23.208 50.8724 23.592C51.1284 23.9653 51.4431 24.2267 51.8164 24.376C52.2004 24.5253 52.6111 24.6 53.0484 24.6Z" fill="white"/>
<path d="M16.8594 36.288C16.3474 36.288 15.9634 36.5333 15.7074 37.024C15.4621 37.504 15.3394 38.3147 15.3394 39.456V40.416C15.3394 41.5467 15.4834 42.3627 15.7714 42.864C16.0594 43.3547 16.5288 43.6 17.1794 43.6C17.6594 43.6 18.0488 43.4667 18.3474 43.2C18.6568 42.9227 18.8328 42.4587 18.8754 41.808L19.8994 42.096C19.7074 42.8427 19.3554 43.376 18.8434 43.696C18.3421 44.0053 17.7501 44.16 17.0674 44.16C15.8408 44.16 14.9181 43.792 14.2994 43.056C13.6808 42.3093 13.3714 41.3227 13.3714 40.096V39.776C13.3714 38.5493 13.6701 37.568 14.2674 36.832C14.8648 36.096 15.7288 35.728 16.8594 35.728C17.6061 35.728 18.2141 35.8773 18.6834 36.176C19.1634 36.464 19.4994 36.848 19.6914 37.328C19.8941 37.7973 19.9474 38.304 19.8514 38.848L18.0914 39.104C18.2088 38.208 18.1608 37.5147 17.9474 37.024C17.7341 36.5333 17.3714 36.288 16.8594 36.288Z" fill="white"/>
<path d="M28.7303 39.776V40.096C28.7303 41.3227 28.4103 42.3093 27.7703 43.056C27.141 43.792 26.2396 44.16 25.0663 44.16C23.893 44.16 22.9863 43.792 22.3463 43.056C21.717 42.3093 21.4023 41.3227 21.4023 40.096V39.776C21.4023 38.5493 21.717 37.568 22.3463 36.832C22.9863 36.096 23.893 35.728 25.0663 35.728C26.2396 35.728 27.141 36.096 27.7703 36.832C28.4103 37.568 28.7303 38.5493 28.7303 39.776ZM26.7623 39.456C26.7623 38.3147 26.6183 37.504 26.3303 37.024C26.0423 36.5333 25.621 36.288 25.0663 36.288C24.5223 36.288 24.101 36.5333 23.8023 37.024C23.5143 37.504 23.3703 38.3147 23.3703 39.456V40.416C23.3703 41.5467 23.5143 42.3627 23.8023 42.864C24.101 43.3547 24.5223 43.6 25.0663 43.6C25.621 43.6 26.0423 43.3547 26.3303 42.864C26.6183 42.3627 26.7623 41.5467 26.7623 40.416V39.456Z" fill="white"/>
<path d="M39.3467 43.552V44H35.0427V43.552L35.9227 43.44C36.0934 43.4187 36.1947 43.376 36.2267 43.312C36.2587 43.2373 36.2747 43.0187 36.2747 42.656V38.624C36.2747 37.888 36.1627 37.3547 35.9387 37.024C35.7254 36.6827 35.4054 36.512 34.9787 36.512C34.7974 36.512 34.584 36.56 34.3387 36.656C34.104 36.7413 33.864 36.9013 33.6187 37.136C33.384 37.3707 33.176 37.7173 32.9947 38.176V42.656C32.9947 43.0187 33.0107 43.2373 33.0427 43.312C33.0747 43.376 33.176 43.4187 33.3467 43.44L34.2267 43.552V44H29.9227V43.552L30.8027 43.44C30.9734 43.4187 31.0747 43.376 31.1067 43.312C31.1387 43.2373 31.1547 43.0187 31.1547 42.656V37.232C31.1547 36.8693 31.1387 36.656 31.1067 36.592C31.0747 36.5173 30.9734 36.4693 30.8027 36.448L29.9227 36.336V35.888H32.8987V37.296C33.208 36.752 33.6027 36.3573 34.0827 36.112C34.5734 35.856 35.064 35.728 35.5547 35.728C36.344 35.728 36.968 35.9787 37.4267 36.48C37.8854 36.9813 38.1147 37.6907 38.1147 38.608V42.656C38.1147 43.0187 38.1307 43.2373 38.1627 43.312C38.1947 43.376 38.296 43.4187 38.4667 43.44L39.3467 43.552Z" fill="white"/>
<path d="M43.5394 40.976L42.4354 40.72C41.7208 40.5493 41.1874 40.2453 40.8354 39.808C40.4941 39.36 40.3234 38.832 40.3234 38.224C40.3234 37.776 40.4194 37.3653 40.6114 36.992C40.8141 36.608 41.1288 36.304 41.5554 36.08C41.9821 35.8453 42.5368 35.728 43.2194 35.728C43.9554 35.728 44.5528 35.8453 45.0114 36.08C45.4701 36.3147 45.7954 36.624 45.9874 37.008C46.1794 37.392 46.2381 37.8027 46.1634 38.24L44.4034 38.56C44.5528 37.8347 44.5101 37.2747 44.2754 36.88C44.0514 36.4853 43.6728 36.288 43.1394 36.288C42.7661 36.288 42.4568 36.4 42.2114 36.624C41.9661 36.8373 41.8434 37.1467 41.8434 37.552C41.8434 37.9253 41.9501 38.256 42.1634 38.544C42.3768 38.8213 42.6914 39.008 43.1074 39.104L44.2114 39.36C45.0008 39.5413 45.5714 39.8293 45.9234 40.224C46.2754 40.608 46.4514 41.088 46.4514 41.664C46.4514 42.3787 46.1848 42.976 45.6514 43.456C45.1288 43.9253 44.3448 44.16 43.2994 44.16C42.9368 44.16 42.5368 44.1067 42.0994 44C41.6728 43.8827 41.2781 43.6747 40.9154 43.376C40.5634 43.0773 40.3074 42.6507 40.1474 42.096L41.1874 41.68C41.2621 42.384 41.5021 42.88 41.9074 43.168C42.3234 43.456 42.7874 43.6 43.2994 43.6C43.7794 43.6 44.1688 43.4933 44.4674 43.28C44.7768 43.056 44.9314 42.736 44.9314 42.32C44.9314 42.032 44.8301 41.7707 44.6274 41.536C44.4354 41.2907 44.0728 41.104 43.5394 40.976Z" fill="white"/>
<path d="M55.3709 39.776V40.096C55.3709 41.3227 55.0509 42.3093 54.4109 43.056C53.7816 43.792 52.8803 44.16 51.7069 44.16C50.5336 44.16 49.6269 43.792 48.9869 43.056C48.3576 42.3093 48.0429 41.3227 48.0429 40.096V39.776C48.0429 38.5493 48.3576 37.568 48.9869 36.832C49.6269 36.096 50.5336 35.728 51.7069 35.728C52.8803 35.728 53.7816 36.096 54.4109 36.832C55.0509 37.568 55.3709 38.5493 55.3709 39.776ZM53.4029 39.456C53.4029 38.3147 53.2589 37.504 52.9709 37.024C52.6829 36.5333 52.2616 36.288 51.7069 36.288C51.1629 36.288 50.7416 36.5333 50.4429 37.024C50.1549 37.504 50.0109 38.3147 50.0109 39.456V40.416C50.0109 41.5467 50.1549 42.3627 50.4429 42.864C50.7416 43.3547 51.1629 43.6 51.7069 43.6C52.2616 43.6 52.6829 43.3547 52.9709 42.864C53.2589 42.3627 53.4029 41.5467 53.4029 40.416V39.456Z" fill="white"/>
<path d="M56.4513 32.608V32.16H59.5233V42.656C59.5233 43.0187 59.5393 43.2373 59.5713 43.312C59.6033 43.376 59.7046 43.4187 59.8753 43.44L60.7553 43.552V44H56.4513V43.552L57.3313 43.44C57.502 43.4187 57.6033 43.376 57.6353 43.312C57.6673 43.2373 57.6833 43.0187 57.6833 42.656V33.504C57.6833 33.1413 57.6673 32.928 57.6353 32.864C57.6033 32.7893 57.502 32.7413 57.3313 32.72L56.4513 32.608Z" fill="white"/>
<path d="M68.5918 42.096C68.3998 42.8427 68.0425 43.376 67.5198 43.696C66.9971 44.0053 66.3891 44.16 65.6958 44.16C64.4158 44.16 63.4558 43.792 62.8158 43.056C62.1758 42.3093 61.8558 41.3227 61.8558 40.096V39.776C61.8558 38.5493 62.1545 37.568 62.7518 36.832C63.3598 36.096 64.2345 35.728 65.3758 35.728C66.0158 35.728 66.5811 35.856 67.0718 36.112C67.5731 36.3573 67.9625 36.7147 68.2398 37.184C68.5278 37.6533 68.6718 38.224 68.6718 38.896C68.6718 39.056 68.6611 39.2267 68.6398 39.408C68.6291 39.5893 68.6025 39.7707 68.5598 39.952H63.8238V40.416C63.8238 41.5467 63.9838 42.3627 64.3038 42.864C64.6238 43.3547 65.1411 43.6 65.8558 43.6C66.3145 43.6 66.7038 43.4667 67.0238 43.2C67.3438 42.9227 67.5251 42.4587 67.5678 41.808L68.5918 42.096ZM65.3758 36.288C64.8531 36.288 64.4638 36.528 64.2078 37.008C63.9518 37.488 63.8238 38.2827 63.8238 39.392H66.7198C66.7625 39.1787 66.7891 38.9813 66.7998 38.8C66.8211 38.608 66.8318 38.432 66.8318 38.272C66.8318 37.5893 66.6985 37.088 66.4318 36.768C66.1651 36.448 65.8131 36.288 65.3758 36.288Z" fill="white"/>
<path d="M15.8126 55.288C15.3006 55.288 14.9166 55.5333 14.6606 56.024C14.4152 56.504 14.2926 57.3147 14.2926 58.456V59.416C14.2926 60.5467 14.4366 61.3627 14.7246 61.864C15.0126 62.3547 15.4819 62.6 16.1326 62.6C16.6126 62.6 17.0019 62.4667 17.3006 62.2C17.6099 61.9227 17.7859 61.4587 17.8286 60.808L18.8526 61.096C18.6606 61.8427 18.3086 62.376 17.7966 62.696C17.2952 63.0053 16.7032 63.16 16.0206 63.16C14.7939 63.16 13.8712 62.792 13.2526 62.056C12.6339 61.3093 12.3246 60.3227 12.3246 59.096V58.776C12.3246 57.5493 12.6232 56.568 13.2206 55.832C13.8179 55.096 14.6819 54.728 15.8126 54.728C16.5592 54.728 17.1672 54.8773 17.6366 55.176C18.1166 55.464 18.4526 55.848 18.6446 56.328C18.8472 56.7973 18.9006 57.304 18.8046 57.848L17.0446 58.104C17.1619 57.208 17.1139 56.5147 16.9006 56.024C16.6872 55.5333 16.3246 55.288 15.8126 55.288Z" fill="white"/>
<path d="M27.6834 58.776V59.096C27.6834 60.3227 27.3634 61.3093 26.7234 62.056C26.0941 62.792 25.1928 63.16 24.0194 63.16C22.8461 63.16 21.9394 62.792 21.2994 62.056C20.6701 61.3093 20.3554 60.3227 20.3554 59.096V58.776C20.3554 57.5493 20.6701 56.568 21.2994 55.832C21.9394 55.096 22.8461 54.728 24.0194 54.728C25.1928 54.728 26.0941 55.096 26.7234 55.832C27.3634 56.568 27.6834 57.5493 27.6834 58.776ZM25.7154 58.456C25.7154 57.3147 25.5714 56.504 25.2834 56.024C24.9954 55.5333 24.5741 55.288 24.0194 55.288C23.4754 55.288 23.0541 55.5333 22.7554 56.024C22.4674 56.504 22.3234 57.3147 22.3234 58.456V59.416C22.3234 60.5467 22.4674 61.3627 22.7554 61.864C23.0541 62.3547 23.4754 62.6 24.0194 62.6C24.5741 62.6 24.9954 62.3547 25.2834 61.864C25.5714 61.3627 25.7154 60.5467 25.7154 59.416V58.456Z" fill="white"/>
<path d="M28.7638 51.608V51.16H31.8358V61.656C31.8358 62.0187 31.8518 62.2373 31.8838 62.312C31.9158 62.376 32.0171 62.4187 32.1878 62.44L33.0678 62.552V63H28.7638V62.552L29.6438 62.44C29.8145 62.4187 29.9158 62.376 29.9478 62.312C29.9798 62.2373 29.9958 62.0187 29.9958 61.656V52.504C29.9958 52.1413 29.9798 51.928 29.9478 51.864C29.9158 51.7893 29.8145 51.7413 29.6438 51.72L28.7638 51.608Z" fill="white"/>
<path d="M41.4803 58.776V59.096C41.4803 60.3227 41.1603 61.3093 40.5203 62.056C39.891 62.792 38.9896 63.16 37.8163 63.16C36.643 63.16 35.7363 62.792 35.0963 62.056C34.467 61.3093 34.1523 60.3227 34.1523 59.096V58.776C34.1523 57.5493 34.467 56.568 35.0963 55.832C35.7363 55.096 36.643 54.728 37.8163 54.728C38.9896 54.728 39.891 55.096 40.5203 55.832C41.1603 56.568 41.4803 57.5493 41.4803 58.776ZM39.5123 58.456C39.5123 57.3147 39.3683 56.504 39.0803 56.024C38.7923 55.5333 38.371 55.288 37.8163 55.288C37.2723 55.288 36.851 55.5333 36.5523 56.024C36.2643 56.504 36.1203 57.3147 36.1203 58.456V59.416C36.1203 60.5467 36.2643 61.3627 36.5523 61.864C36.851 62.3547 37.2723 62.6 37.8163 62.6C38.371 62.6 38.7923 62.3547 39.0803 61.864C39.3683 61.3627 39.5123 60.5467 39.5123 59.416V58.456Z" fill="white"/>
<path d="M42.6727 55.336V54.888H45.6487V56.2C46.2994 55.2187 47.0727 54.728 47.9687 54.728C48.2994 54.728 48.6194 54.8347 48.9287 55.048C49.238 55.2507 49.494 55.6347 49.6967 56.2L48.2727 56.968C48.1234 56.5307 47.9474 56.2373 47.7447 56.088C47.5527 55.928 47.3447 55.848 47.1207 55.848C46.886 55.848 46.6567 55.9227 46.4327 56.072C46.2087 56.2213 45.9794 56.4987 45.7447 56.904V61.656C45.7447 62.0187 45.7607 62.2373 45.7927 62.312C45.8247 62.376 45.926 62.4187 46.0967 62.44L47.2967 62.552V63H42.6727V62.552L43.5527 62.44C43.7234 62.4187 43.8247 62.376 43.8567 62.312C43.8887 62.2373 43.9047 62.0187 43.9047 61.656V56.232C43.9047 55.8693 43.8887 55.656 43.8567 55.592C43.8247 55.5173 43.7234 55.4693 43.5527 55.448L42.6727 55.336Z" fill="white"/>
<path d="M52.2073 53.512C51.8766 53.512 51.61 53.4107 51.4073 53.208C51.2046 52.9947 51.1033 52.7227 51.1033 52.392C51.1033 52.0613 51.2046 51.7947 51.4073 51.592C51.61 51.3893 51.8766 51.288 52.2073 51.288C52.5273 51.288 52.794 51.3893 53.0073 51.592C53.2206 51.7947 53.3273 52.0613 53.3273 52.392C53.3273 52.7227 53.2206 52.9947 53.0073 53.208C52.794 53.4107 52.5273 53.512 52.2073 53.512ZM50.0633 55.336V54.888H53.1353V61.656C53.1353 62.0187 53.1513 62.2373 53.1833 62.312C53.2153 62.376 53.3166 62.4187 53.4873 62.44L54.3673 62.552V63H50.0633V62.552L50.9433 62.44C51.114 62.4187 51.2153 62.376 51.2473 62.312C51.2793 62.2373 51.2953 62.0187 51.2953 61.656V56.232C51.2953 55.8693 51.2793 55.656 51.2473 55.592C51.2153 55.5173 51.114 55.4693 50.9433 55.448L50.0633 55.336Z" fill="white"/>
<path d="M60.9692 60.568H61.4172V63H55.2252V62.6L59.2412 55.448H57.1612C56.9159 55.448 56.7345 55.4587 56.6172 55.48C56.5105 55.4907 56.4412 55.528 56.4092 55.592C56.3772 55.6453 56.3399 55.736 56.2972 55.864L55.8652 57.32H55.4172V54.888H61.2572V55.288L57.2412 62.44H59.6732C59.9292 62.44 60.1105 62.4347 60.2172 62.424C60.3239 62.4027 60.3932 62.3653 60.4252 62.312C60.4679 62.248 60.5052 62.152 60.5372 62.024L60.9692 60.568Z" fill="white"/>
<path d="M69.6387 61.096C69.4467 61.8427 69.0894 62.376 68.5667 62.696C68.044 63.0053 67.436 63.16 66.7427 63.16C65.4627 63.16 64.5027 62.792 63.8627 62.056C63.2227 61.3093 62.9027 60.3227 62.9027 59.096V58.776C62.9027 57.5493 63.2014 56.568 63.7987 55.832C64.4067 55.096 65.2814 54.728 66.4227 54.728C67.0627 54.728 67.628 54.856 68.1187 55.112C68.62 55.3573 69.0094 55.7147 69.2867 56.184C69.5747 56.6533 69.7187 57.224 69.7187 57.896C69.7187 58.056 69.708 58.2267 69.6867 58.408C69.676 58.5893 69.6494 58.7707 69.6067 58.952H64.8707V59.416C64.8707 60.5467 65.0307 61.3627 65.3507 61.864C65.6707 62.3547 66.188 62.6 66.9027 62.6C67.3614 62.6 67.7507 62.4667 68.0707 62.2C68.3907 61.9227 68.572 61.4587 68.6147 60.808L69.6387 61.096ZM66.4227 55.288C65.9 55.288 65.5107 55.528 65.2547 56.008C64.9987 56.488 64.8707 57.2827 64.8707 58.392H67.7667C67.8094 58.1787 67.836 57.9813 67.8467 57.8C67.868 57.608 67.8787 57.432 67.8787 57.272C67.8787 56.5893 67.7454 56.088 67.4787 55.768C67.212 55.448 66.86 55.288 66.4227 55.288Z" fill="white"/>
<path d="M5 1H77V73H5V1Z" stroke="#262516" stroke-width="2" mask="url(#path-1-outside-1_5_17)"/>
<path d="M27.3592 24.552V25H24.2712V24.552L25.1512 24.44C25.2685 24.4187 25.3539 24.3973 25.4072 24.376C25.4605 24.344 25.5085 24.2747 25.5512 24.168C25.5939 24.0613 25.6525 23.8907 25.7272 23.656L28.7832 14.12H30.1592L33.2312 23.656C33.3059 23.8907 33.3645 24.0613 33.4072 24.168C33.4499 24.2747 33.4979 24.344 33.5512 24.376C33.6152 24.3973 33.7005 24.4187 33.8072 24.44L34.6872 24.552V25H30.2712V24.552L31.1512 24.44C31.3219 24.4187 31.4125 24.376 31.4232 24.312C31.4445 24.2373 31.3965 24.0187 31.2792 23.656L30.6712 21.672H26.9752L26.3512 23.656C26.2445 24.0187 26.1965 24.2373 26.2072 24.312C26.2179 24.376 26.3085 24.4187 26.4792 24.44L27.3592 24.552ZM27.1672 21.112H30.4952L28.8472 15.8L27.1672 21.112Z" stroke="#262516" stroke-width="2" mask="url(#path-1-outside-1_5_17)"/>
<path d="M43.6808 25L41.0568 16.264L38.5768 25H37.1848L34.9608 15.464C34.9075 15.2187 34.8648 15.048 34.8328 14.952C34.8008 14.8453 34.7528 14.776 34.6888 14.744C34.6355 14.712 34.5501 14.6907 34.4328 14.68L33.5528 14.568V14.12H37.9848V14.568L37.1048 14.68C36.9341 14.7013 36.8435 14.744 36.8328 14.808C36.8221 14.872 36.8541 15.0907 36.9288 15.464L38.5928 22.92L41.0408 14.12H42.3688L44.9768 22.76L46.6728 15.464C46.7581 15.0907 46.7901 14.872 46.7688 14.808C46.7475 14.744 46.6568 14.7013 46.4968 14.68L45.6168 14.568V14.12H48.7208V14.568L47.8408 14.68C47.7235 14.6907 47.6381 14.712 47.5848 14.744C47.5315 14.776 47.4835 14.8453 47.4408 14.952C47.4088 15.048 47.3661 15.2187 47.3128 15.464L45.0888 25H43.6808Z" stroke="#262516" stroke-width="2" mask="url(#path-1-outside-1_5_17)"/>
<path d="M53.0484 24.6C53.6884 24.6 54.2164 24.4507 54.6324 24.152C55.0591 23.8427 55.2724 23.3627 55.2724 22.712C55.2724 22.232 55.1284 21.832 54.8404 21.512C54.5631 21.192 54.0618 20.9253 53.3364 20.712L51.8484 20.264C51.1018 20.04 50.5258 19.656 50.1204 19.112C49.7258 18.5573 49.5284 17.8693 49.5284 17.048C49.5284 16.504 49.6511 15.9973 49.8964 15.528C50.1524 15.0587 50.5364 14.68 51.0484 14.392C51.5711 14.104 52.2271 13.96 53.0164 13.96C53.8804 13.96 54.5791 14.12 55.1124 14.44C55.6458 14.7493 56.0191 15.1547 56.2324 15.656C56.4458 16.1573 56.4991 16.696 56.3924 17.272L54.5524 17.608C54.7231 16.616 54.6484 15.8533 54.3284 15.32C54.0191 14.7867 53.5124 14.52 52.8084 14.52C52.2644 14.52 51.8271 14.68 51.4964 15C51.1764 15.32 51.0164 15.7787 51.0164 16.376C51.0164 16.8667 51.1551 17.2987 51.4324 17.672C51.7204 18.0453 52.1898 18.3333 52.8404 18.536L54.3284 18.984C55.1391 19.2187 55.7471 19.576 56.1524 20.056C56.5578 20.5253 56.7604 21.1813 56.7604 22.024C56.7604 22.6213 56.6218 23.16 56.3444 23.64C56.0778 24.1093 55.6671 24.4827 55.1124 24.76C54.5684 25.0267 53.8858 25.16 53.0644 25.16C52.4671 25.16 51.9018 25.0747 51.3684 24.904C50.8351 24.7227 50.3871 24.4293 50.0244 24.024C49.6724 23.6187 49.4484 23.0693 49.3524 22.376L50.4244 21.992C50.4778 22.6747 50.6271 23.208 50.8724 23.592C51.1284 23.9653 51.4431 24.2267 51.8164 24.376C52.2004 24.5253 52.6111 24.6 53.0484 24.6Z" stroke="#262516" stroke-width="2" mask="url(#path-1-outside-1_5_17)"/>
<path d="M16.8594 36.288C16.3474 36.288 15.9634 36.5333 15.7074 37.024C15.4621 37.504 15.3394 38.3147 15.3394 39.456V40.416C15.3394 41.5467 15.4834 42.3627 15.7714 42.864C16.0594 43.3547 16.5288 43.6 17.1794 43.6C17.6594 43.6 18.0488 43.4667 18.3474 43.2C18.6568 42.9227 18.8328 42.4587 18.8754 41.808L19.8994 42.096C19.7074 42.8427 19.3554 43.376 18.8434 43.696C18.3421 44.0053 17.7501 44.16 17.0674 44.16C15.8408 44.16 14.9181 43.792 14.2994 43.056C13.6808 42.3093 13.3714 41.3227 13.3714 40.096V39.776C13.3714 38.5493 13.6701 37.568 14.2674 36.832C14.8648 36.096 15.7288 35.728 16.8594 35.728C17.6061 35.728 18.2141 35.8773 18.6834 36.176C19.1634 36.464 19.4994 36.848 19.6914 37.328C19.8941 37.7973 19.9474 38.304 19.8514 38.848L18.0914 39.104C18.2088 38.208 18.1608 37.5147 17.9474 37.024C17.7341 36.5333 17.3714 36.288 16.8594 36.288Z" stroke="#262516" stroke-width="2" mask="url(#path-1-outside-1_5_17)"/>
<path d="M28.7303 39.776V40.096C28.7303 41.3227 28.4103 42.3093 27.7703 43.056C27.141 43.792 26.2396 44.16 25.0663 44.16C23.893 44.16 22.9863 43.792 22.3463 43.056C21.717 42.3093 21.4023 41.3227 21.4023 40.096V39.776C21.4023 38.5493 21.717 37.568 22.3463 36.832C22.9863 36.096 23.893 35.728 25.0663 35.728C26.2396 35.728 27.141 36.096 27.7703 36.832C28.4103 37.568 28.7303 38.5493 28.7303 39.776ZM26.7623 39.456C26.7623 38.3147 26.6183 37.504 26.3303 37.024C26.0423 36.5333 25.621 36.288 25.0663 36.288C24.5223 36.288 24.101 36.5333 23.8023 37.024C23.5143 37.504 23.3703 38.3147 23.3703 39.456V40.416C23.3703 41.5467 23.5143 42.3627 23.8023 42.864C24.101 43.3547 24.5223 43.6 25.0663 43.6C25.621 43.6 26.0423 43.3547 26.3303 42.864C26.6183 42.3627 26.7623 41.5467 26.7623 40.416V39.456Z" stroke="#262516" stroke-width="2" mask="url(#path-1-outside-1_5_17)"/>
<path d="M39.3467 43.552V44H35.0427V43.552L35.9227 43.44C36.0934 43.4187 36.1947 43.376 36.2267 43.312C36.2587 43.2373 36.2747 43.0187 36.2747 42.656V38.624C36.2747 37.888 36.1627 37.3547 35.9387 37.024C35.7254 36.6827 35.4054 36.512 34.9787 36.512C34.7974 36.512 34.584 36.56 34.3387 36.656C34.104 36.7413 33.864 36.9013 33.6187 37.136C33.384 37.3707 33.176 37.7173 32.9947 38.176V42.656C32.9947 43.0187 33.0107 43.2373 33.0427 43.312C33.0747 43.376 33.176 43.4187 33.3467 43.44L34.2267 43.552V44H29.9227V43.552L30.8027 43.44C30.9734 43.4187 31.0747 43.376 31.1067 43.312C31.1387 43.2373 31.1547 43.0187 31.1547 42.656V37.232C31.1547 36.8693 31.1387 36.656 31.1067 36.592C31.0747 36.5173 30.9734 36.4693 30.8027 36.448L29.9227 36.336V35.888H32.8987V37.296C33.208 36.752 33.6027 36.3573 34.0827 36.112C34.5734 35.856 35.064 35.728 35.5547 35.728C36.344 35.728 36.968 35.9787 37.4267 36.48C37.8854 36.9813 38.1147 37.6907 38.1147 38.608V42.656C38.1147 43.0187 38.1307 43.2373 38.1627 43.312C38.1947 43.376 38.296 43.4187 38.4667 43.44L39.3467 43.552Z" stroke="#262516" stroke-width="2" mask="url(#path-1-outside-1_5_17)"/>
<path d="M43.5394 40.976L42.4354 40.72C41.7208 40.5493 41.1874 40.2453 40.8354 39.808C40.4941 39.36 40.3234 38.832 40.3234 38.224C40.3234 37.776 40.4194 37.3653 40.6114 36.992C40.8141 36.608 41.1288 36.304 41.5554 36.08C41.9821 35.8453 42.5368 35.728 43.2194 35.728C43.9554 35.728 44.5528 35.8453 45.0114 36.08C45.4701 36.3147 45.7954 36.624 45.9874 37.008C46.1794 37.392 46.2381 37.8027 46.1634 38.24L44.4034 38.56C44.5528 37.8347 44.5101 37.2747 44.2754 36.88C44.0514 36.4853 43.6728 36.288 43.1394 36.288C42.7661 36.288 42.4568 36.4 42.2114 36.624C41.9661 36.8373 41.8434 37.1467 41.8434 37.552C41.8434 37.9253 41.9501 38.256 42.1634 38.544C42.3768 38.8213 42.6914 39.008 43.1074 39.104L44.2114 39.36C45.0008 39.5413 45.5714 39.8293 45.9234 40.224C46.2754 40.608 46.4514 41.088 46.4514 41.664C46.4514 42.3787 46.1848 42.976 45.6514 43.456C45.1288 43.9253 44.3448 44.16 43.2994 44.16C42.9368 44.16 42.5368 44.1067 42.0994 44C41.6728 43.8827 41.2781 43.6747 40.9154 43.376C40.5634 43.0773 40.3074 42.6507 40.1474 42.096L41.1874 41.68C41.2621 42.384 41.5021 42.88 41.9074 43.168C42.3234 43.456 42.7874 43.6 43.2994 43.6C43.7794 43.6 44.1688 43.4933 44.4674 43.28C44.7768 43.056 44.9314 42.736 44.9314 42.32C44.9314 42.032 44.8301 41.7707 44.6274 41.536C44.4354 41.2907 44.0728 41.104 43.5394 40.976Z" stroke="#262516" stroke-width="2" mask="url(#path-1-outside-1_5_17)"/>
<path d="M55.3709 39.776V40.096C55.3709 41.3227 55.0509 42.3093 54.4109 43.056C53.7816 43.792 52.8803 44.16 51.7069 44.16C50.5336 44.16 49.6269 43.792 48.9869 43.056C48.3576 42.3093 48.0429 41.3227 48.0429 40.096V39.776C48.0429 38.5493 48.3576 37.568 48.9869 36.832C49.6269 36.096 50.5336 35.728 51.7069 35.728C52.8803 35.728 53.7816 36.096 54.4109 36.832C55.0509 37.568 55.3709 38.5493 55.3709 39.776ZM53.4029 39.456C53.4029 38.3147 53.2589 37.504 52.9709 37.024C52.6829 36.5333 52.2616 36.288 51.7069 36.288C51.1629 36.288 50.7416 36.5333 50.4429 37.024C50.1549 37.504 50.0109 38.3147 50.0109 39.456V40.416C50.0109 41.5467 50.1549 42.3627 50.4429 42.864C50.7416 43.3547 51.1629 43.6 51.7069 43.6C52.2616 43.6 52.6829 43.3547 52.9709 42.864C53.2589 42.3627 53.4029 41.5467 53.4029 40.416V39.456Z" stroke="#262516" stroke-width="2" mask="url(#path-1-outside-1_5_17)"/>
<path d="M56.4513 32.608V32.16H59.5233V42.656C59.5233 43.0187 59.5393 43.2373 59.5713 43.312C59.6033 43.376 59.7046 43.4187 59.8753 43.44L60.7553 43.552V44H56.4513V43.552L57.3313 43.44C57.502 43.4187 57.6033 43.376 57.6353 43.312C57.6673 43.2373 57.6833 43.0187 57.6833 42.656V33.504C57.6833 33.1413 57.6673 32.928 57.6353 32.864C57.6033 32.7893 57.502 32.7413 57.3313 32.72L56.4513 32.608Z" stroke="#262516" stroke-width="2" mask="url(#path-1-outside-1_5_17)"/>
<path d="M68.5918 42.096C68.3998 42.8427 68.0425 43.376 67.5198 43.696C66.9971 44.0053 66.3891 44.16 65.6958 44.16C64.4158 44.16 63.4558 43.792 62.8158 43.056C62.1758 42.3093 61.8558 41.3227 61.8558 40.096V39.776C61.8558 38.5493 62.1545 37.568 62.7518 36.832C63.3598 36.096 64.2345 35.728 65.3758 35.728C66.0158 35.728 66.5811 35.856 67.0718 36.112C67.5731 36.3573 67.9625 36.7147 68.2398 37.184C68.5278 37.6533 68.6718 38.224 68.6718 38.896C68.6718 39.056 68.6611 39.2267 68.6398 39.408C68.6291 39.5893 68.6025 39.7707 68.5598 39.952H63.8238V40.416C63.8238 41.5467 63.9838 42.3627 64.3038 42.864C64.6238 43.3547 65.1411 43.6 65.8558 43.6C66.3145 43.6 66.7038 43.4667 67.0238 43.2C67.3438 42.9227 67.5251 42.4587 67.5678 41.808L68.5918 42.096ZM65.3758 36.288C64.8531 36.288 64.4638 36.528 64.2078 37.008C63.9518 37.488 63.8238 38.2827 63.8238 39.392H66.7198C66.7625 39.1787 66.7891 38.9813 66.7998 38.8C66.8211 38.608 66.8318 38.432 66.8318 38.272C66.8318 37.5893 66.6985 37.088 66.4318 36.768C66.1651 36.448 65.8131 36.288 65.3758 36.288Z" stroke="#262516" stroke-width="2" mask="url(#path-1-outside-1_5_17)"/>
<path d="M15.8126 55.288C15.3006 55.288 14.9166 55.5333 14.6606 56.024C14.4152 56.504 14.2926 57.3147 14.2926 58.456V59.416C14.2926 60.5467 14.4366 61.3627 14.7246 61.864C15.0126 62.3547 15.4819 62.6 16.1326 62.6C16.6126 62.6 17.0019 62.4667 17.3006 62.2C17.6099 61.9227 17.7859 61.4587 17.8286 60.808L18.8526 61.096C18.6606 61.8427 18.3086 62.376 17.7966 62.696C17.2952 63.0053 16.7032 63.16 16.0206 63.16C14.7939 63.16 13.8712 62.792 13.2526 62.056C12.6339 61.3093 12.3246 60.3227 12.3246 59.096V58.776C12.3246 57.5493 12.6232 56.568 13.2206 55.832C13.8179 55.096 14.6819 54.728 15.8126 54.728C16.5592 54.728 17.1672 54.8773 17.6366 55.176C18.1166 55.464 18.4526 55.848 18.6446 56.328C18.8472 56.7973 18.9006 57.304 18.8046 57.848L17.0446 58.104C17.1619 57.208 17.1139 56.5147 16.9006 56.024C16.6872 55.5333 16.3246 55.288 15.8126 55.288Z" stroke="#262516" stroke-width="2" mask="url(#path-1-outside-1_5_17)"/>
<path d="M27.6834 58.776V59.096C27.6834 60.3227 27.3634 61.3093 26.7234 62.056C26.0941 62.792 25.1928 63.16 24.0194 63.16C22.8461 63.16 21.9394 62.792 21.2994 62.056C20.6701 61.3093 20.3554 60.3227 20.3554 59.096V58.776C20.3554 57.5493 20.6701 56.568 21.2994 55.832C21.9394 55.096 22.8461 54.728 24.0194 54.728C25.1928 54.728 26.0941 55.096 26.7234 55.832C27.3634 56.568 27.6834 57.5493 27.6834 58.776ZM25.7154 58.456C25.7154 57.3147 25.5714 56.504 25.2834 56.024C24.9954 55.5333 24.5741 55.288 24.0194 55.288C23.4754 55.288 23.0541 55.5333 22.7554 56.024C22.4674 56.504 22.3234 57.3147 22.3234 58.456V59.416C22.3234 60.5467 22.4674 61.3627 22.7554 61.864C23.0541 62.3547 23.4754 62.6 24.0194 62.6C24.5741 62.6 24.9954 62.3547 25.2834 61.864C25.5714 61.3627 25.7154 60.5467 25.7154 59.416V58.456Z" stroke="#262516" stroke-width="2" mask="url(#path-1-outside-1_5_17)"/>
<path d="M28.7638 51.608V51.16H31.8358V61.656C31.8358 62.0187 31.8518 62.2373 31.8838 62.312C31.9158 62.376 32.0171 62.4187 32.1878 62.44L33.0678 62.552V63H28.7638V62.552L29.6438 62.44C29.8145 62.4187 29.9158 62.376 29.9478 62.312C29.9798 62.2373 29.9958 62.0187 29.9958 61.656V52.504C29.9958 52.1413 29.9798 51.928 29.9478 51.864C29.9158 51.7893 29.8145 51.7413 29.6438 51.72L28.7638 51.608Z" stroke="#262516" stroke-width="2" mask="url(#path-1-outside-1_5_17)"/>
<path d="M41.4803 58.776V59.096C41.4803 60.3227 41.1603 61.3093 40.5203 62.056C39.891 62.792 38.9896 63.16 37.8163 63.16C36.643 63.16 35.7363 62.792 35.0963 62.056C34.467 61.3093 34.1523 60.3227 34.1523 59.096V58.776C34.1523 57.5493 34.467 56.568 35.0963 55.832C35.7363 55.096 36.643 54.728 37.8163 54.728C38.9896 54.728 39.891 55.096 40.5203 55.832C41.1603 56.568 41.4803 57.5493 41.4803 58.776ZM39.5123 58.456C39.5123 57.3147 39.3683 56.504 39.0803 56.024C38.7923 55.5333 38.371 55.288 37.8163 55.288C37.2723 55.288 36.851 55.5333 36.5523 56.024C36.2643 56.504 36.1203 57.3147 36.1203 58.456V59.416C36.1203 60.5467 36.2643 61.3627 36.5523 61.864C36.851 62.3547 37.2723 62.6 37.8163 62.6C38.371 62.6 38.7923 62.3547 39.0803 61.864C39.3683 61.3627 39.5123 60.5467 39.5123 59.416V58.456Z" stroke="#262516" stroke-width="2" mask="url(#path-1-outside-1_5_17)"/>
<path d="M42.6727 55.336V54.888H45.6487V56.2C46.2994 55.2187 47.0727 54.728 47.9687 54.728C48.2994 54.728 48.6194 54.8347 48.9287 55.048C49.238 55.2507 49.494 55.6347 49.6967 56.2L48.2727 56.968C48.1234 56.5307 47.9474 56.2373 47.7447 56.088C47.5527 55.928 47.3447 55.848 47.1207 55.848C46.886 55.848 46.6567 55.9227 46.4327 56.072C46.2087 56.2213 45.9794 56.4987 45.7447 56.904V61.656C45.7447 62.0187 45.7607 62.2373 45.7927 62.312C45.8247 62.376 45.926 62.4187 46.0967 62.44L47.2967 62.552V63H42.6727V62.552L43.5527 62.44C43.7234 62.4187 43.8247 62.376 43.8567 62.312C43.8887 62.2373 43.9047 62.0187 43.9047 61.656V56.232C43.9047 55.8693 43.8887 55.656 43.8567 55.592C43.8247 55.5173 43.7234 55.4693 43.5527 55.448L42.6727 55.336Z" stroke="#262516" stroke-width="2" mask="url(#path-1-outside-1_5_17)"/>
<path d="M52.2073 53.512C51.8766 53.512 51.61 53.4107 51.4073 53.208C51.2046 52.9947 51.1033 52.7227 51.1033 52.392C51.1033 52.0613 51.2046 51.7947 51.4073 51.592C51.61 51.3893 51.8766 51.288 52.2073 51.288C52.5273 51.288 52.794 51.3893 53.0073 51.592C53.2206 51.7947 53.3273 52.0613 53.3273 52.392C53.3273 52.7227 53.2206 52.9947 53.0073 53.208C52.794 53.4107 52.5273 53.512 52.2073 53.512ZM50.0633 55.336V54.888H53.1353V61.656C53.1353 62.0187 53.1513 62.2373 53.1833 62.312C53.2153 62.376 53.3166 62.4187 53.4873 62.44L54.3673 62.552V63H50.0633V62.552L50.9433 62.44C51.114 62.4187 51.2153 62.376 51.2473 62.312C51.2793 62.2373 51.2953 62.0187 51.2953 61.656V56.232C51.2953 55.8693 51.2793 55.656 51.2473 55.592C51.2153 55.5173 51.114 55.4693 50.9433 55.448L50.0633 55.336Z" stroke="#262516" stroke-width="2" mask="url(#path-1-outside-1_5_17)"/>
<path d="M60.9692 60.568H61.4172V63H55.2252V62.6L59.2412 55.448H57.1612C56.9159 55.448 56.7345 55.4587 56.6172 55.48C56.5105 55.4907 56.4412 55.528 56.4092 55.592C56.3772 55.6453 56.3399 55.736 56.2972 55.864L55.8652 57.32H55.4172V54.888H61.2572V55.288L57.2412 62.44H59.6732C59.9292 62.44 60.1105 62.4347 60.2172 62.424C60.3239 62.4027 60.3932 62.3653 60.4252 62.312C60.4679 62.248 60.5052 62.152 60.5372 62.024L60.9692 60.568Z" stroke="#262516" stroke-width="2" mask="url(#path-1-outside-1_5_17)"/>
<path d="M69.6387 61.096C69.4467 61.8427 69.0894 62.376 68.5667 62.696C68.044 63.0053 67.436 63.16 66.7427 63.16C65.4627 63.16 64.5027 62.792 63.8627 62.056C63.2227 61.3093 62.9027 60.3227 62.9027 59.096V58.776C62.9027 57.5493 63.2014 56.568 63.7987 55.832C64.4067 55.096 65.2814 54.728 66.4227 54.728C67.0627 54.728 67.628 54.856 68.1187 55.112C68.62 55.3573 69.0094 55.7147 69.2867 56.184C69.5747 56.6533 69.7187 57.224 69.7187 57.896C69.7187 58.056 69.708 58.2267 69.6867 58.408C69.676 58.5893 69.6494 58.7707 69.6067 58.952H64.8707V59.416C64.8707 60.5467 65.0307 61.3627 65.3507 61.864C65.6707 62.3547 66.188 62.6 66.9027 62.6C67.3614 62.6 67.7507 62.4667 68.0707 62.2C68.3907 61.9227 68.572 61.4587 68.6147 60.808L69.6387 61.096ZM66.4227 55.288C65.9 55.288 65.5107 55.528 65.2547 56.008C64.9987 56.488 64.8707 57.2827 64.8707 58.392H67.7667C67.8094 58.1787 67.836 57.9813 67.8467 57.8C67.868 57.608 67.8787 57.432 67.8787 57.272C67.8787 56.5893 67.7454 56.088 67.4787 55.768C67.212 55.448 66.86 55.288 66.4227 55.288Z" stroke="#262516" stroke-width="2" mask="url(#path-1-outside-1_5_17)"/>
</g>
<defs>
<filter id="filter0_d_5_17" x="0" y="0" width="82" height="82" filterUnits="userSpaceOnUse" color-interpolation-filters="sRGB">
<feFlood flood-opacity="0" result="BackgroundImageFix"/>
<feColorMatrix in="SourceAlpha" type="matrix" values="0 0 0 0 0 0 0 0 0 0 0 0 0 0 0 0 0 0 127 0" result="hardAlpha"/>
<feOffset dy="4"/>
<feGaussianBlur stdDeviation="2"/>
<feComposite in2="hardAlpha" operator="out"/>
<feColorMatrix type="matrix" values="0 0 0 0 0 0 0 0 0 0 0 0 0 0 0 0 0 0 0.25 0"/>
<feBlend mode="normal" in2="BackgroundImageFix" result="effect1_dropShadow_5_17"/>
<feBlend mode="normal" in="SourceGraphic" in2="effect1_dropShadow_5_17" result="shape"/>
</filter>
</defs>
</svg>
